P2
80 60
255
35 45 249 192 13 225 180 142 93 56 2 85 47 242 18 228 99 0 155 157 149 233 121 50 135 142 75 155 222 196 3 207 165 21 26 87 37 160 168 153 11 15 255 84 77 43 137 150 62 192 128 29 94 40 230 249 252 250 116 1 81 19 164 156 1 118 219 46 246 55 160 103 79 10 82 190 228 194 83 41 5 146 143 98 142 176 113 220 21 100 224 194 249 157 132 104 94 137 184 186 168 195 192 75 233 48 156 17 182 198 120 193 102 3 30 87 63 21 9 88 33 85 166 235 132 241 20 4 254 92 57 123 120 113 92 32 70 225 129 109 142 13 170 242 79 23 198 250 5 133 136 159 67 155 156 248 19 53 174 162 149 175 110 161 147 36 123 49 226 63 53 194 38 102 217 54 96 83 253 35 237 149 82 166 252 220 6 43 70 130 74 116 223 20 169 239 52 99 154 111 244 228 71 69 91 23 5 173 165 243 239 137 187 69 61 110 239 97 128 27 145 119 116 136 118 86 119 220 6 123 172 210 77 209 170 39 152 145 78 26 140 114 152 1 102 74 172 148 231 44 37 142 194 23 120 226 232 16 219 255 188 235 95 13 132 154 254 135 133 107 75 26 25 70 32 8 216 149 247 29 30 69 255 138 215 218 217 220 14 147 199 172 248 9 156 119 90 222 28 167 246 153 152 167 96 228 116 132 237 32 8 125 198 73 170 168 6 13 2 188 163 6 218 219 94 239 75 57 94 239 227 95 24 227 169 208 55 252 33 201 174 237 69 235 201 62 68 174 14 100 54 153 23 195 85 78 254 160 83 184 218 201 58 211 224 160 222 182 46 251 108 222 213 88 170 231 213 160 151 92 198 214 198 111 168 250 89 240 233 113 224 67 241 62 100 103 187 173 213 202 199 204 176 255 134 154 47 10 159 179 126 134 235 180 128 127 184 147 96 130 21 175 224 255 12 103 132 241 120 166 250 69 234 217 246 100 77 144 107 16 107 19 150 99 43 1 99 237 99 72 247 116 119 139 202 19 124 87 104 51 122 91 92 233 156 72 205 69 97 201 118 37 210 132 35 40 121 10 146 152 85 11 187 20 102 66 158 20 97 7 150 135 37 140 187 252 245 126 107 29 31 199 9 114 197 2 60 213 150 64 131 58 224 165 140 236 52 130 40 178 210 138 146 217 140 225 226 130 87 223 255 44 200 143 226 233 218 18 56 78 225 79 116 193 83 148 18 102 16 21 130 162 66 123 109 218 94 32 49 187 227 204 82 65 129 107 102 80 204 81 84 175 104 118 30 239 143 46 108 180 37 198 213 207 39 173 141 117 25 165 115 225 50 232 157 185 143 243 133 142 67 69 159 222 49 30 165 51 224 0 51 242 243 144 93 193 223 30 181 128 113 31 241 31 70 145 165 200 216 90 217 56 221 110 38 96 205 182 203 198 15 110 177 138 244 254 171 76 214 36 83 182 6 131 195 212 198 169 21 248 159 241 8 94 112 150 89 110 35 201 97 9 188 147 88 216 115 217 39 123 240 223 9 227 76 70 99 10 112 143 26 241 130 242 109 146 147 96 189 74 129 84 252 30 244 99 130 16 178 13 210 192 40 234 118 98 188 213 124 52 212 98 56 123 187 136 240 60 100 23 208 209 232 100 231 201 3 10 105 98 67 213 72 89 127 71 66 200 67 80 3 42 67 130 106 198 156 20 49 32 142 197 52 81 154 231 82 135 143 139 95 92 166 31 2 4 28 151 102 224 238 126 130 103 12 79 123 232 77 186 229 47 141 122 30 156 236 203 200 238 239 163 76 144 44 54 220 230 180 130 185 218 218 7 176 131 240 42 157 168 204 41 123 142 57 227 250 93 80 82 222 71 186 231 101 120 15 172 208 186 49 107 185 193 98 237 62 239 215 181 71 124 42 159 253 230 135 25 89 173 163 172 39 109 166 38 39 155 213 126 0 59 152 99 148 48 141 68 237 246 200 82 76 213 9 52 50 242 149 172 26 229 193 207 103 228 153 8 148 240 237 129 242 210 45 84 118 69 187 42 225 240 30 231 57 153 91 99 1 69 234 253 213 182 77 142 5 61 0 237 170 129 140 8 22 131 221 117 13 214 149 254 48 201 255 218 237 241 97 207 21 92 1 198 132 121 193 244 187 171 103 17 30 85 205 203 135 22 227 246 90 229 61 219 181 180 16 83 115 71 230 81 185 231 12 236 112 197 190 216 139 227 78 234 88 141 14 18 14 135 171 248 183 84 182 78 36 47 113 188 27 142 194 59 3 88 254 146 87 68 154 186 238 55 63 198 170 203 141 28 100 175 254 180 34 218 153 78 91 57 237 130 218 195 148 224 48 171 205 103 218 200 42 217 76 243 35 177 205 218 75 197 178 50 98 242 201 56 255 119 244 210 115 20 220 179 196 98 70 120 251 55 37 155 215 139 167 251 221 142 154 139 37 115 86 173 199 182 209 169 179 127 25 181 205 38 101 1 188 180 252 58 93 187 219 25 232 212 147 161 28 127 7 225 53 58 229 30 104 50 99 155 154 240 147 86 147 45 233 102 110 228 214 222 29 168 63 128 15 66 101 202 112 126 91 111 112 71 109 148 241 244 248 162 105 33 33 30 102 34 101 56 9 168 139 143 6 3 157 5 61 2 167 65 166 67 175 0 131 133 245 24 233 89 221 172 142 107 4 230 99 131 250 48 255 30 165 193 5 173 248 43 168 57 202 92 90 97 165 121 242 138 68 220 88 59 2 115 94 165 216 181 217 143 200 105 64 218 100 126 242 53 241 83 35 157 22 210 203 167 96 254 121 187 221 167 169 227 4 53 137 219 160 187 65 205 8 170 184 45 227 245 151 233 243 148 162 78 225 218 250 191 197 88 164 183 72 127 212 56 118 167 192 69 30 140 115 197 101 230 13 173 117 64 244 38 155 205 18 234 251 136 245 18 238 151 179 252 143 153 195 47 108 40 170 128 97 161 30 6 153 2 160 253 76 117 198 229 102 249 94 236 102 100 118 228 232 246 181 212 2 128 249 125 68 52 14 8 153 13 124 100 68 217 200 214 88 244 79 146 151 199 198 62 69 80 182 184 175 1 234 121 57 135 119 134 178 31 70 236 40 130 72 118 8 131 80 78 107 236 90 21 101 104 103 20 16 153 131 236 98 250 90 127 90 112 227 139 10 0 230 204 246 132 249 91 228 210 58 96 154 47 129 39 99 168 11 5 3 92 149 157 196 121 190 125 148 94 238 33 200 236 178 12 4 237 49 182 204 30 185 185 226 56 181 225 41 66 56 98 214 30 41 198 242 85 146 244 230 251 251 218 93 104 198 80 59 166 121 241 132 69 109 184 7 126 5 140 68 114 126 206 168 168 210 160 96 197 125 118 35 232 4 56 57 28 9 48 127 160 53 187 189 242 234 190 183 248 160 177 89 203 6 24 57 39 144 65 15 198 235 18 46 105 194 222 19 203 217 55 4 24 218 203 108 29 109 178 237 240 34 104 147 74 93 81 85 132 44 127 14 190 235 250 131 81 18 1 116 131 247 19 223 12 101 222 100 212 222 200 148 14 17 236 77 171 135 38 139 3 197 14 46 99 80 106 243 46 154 21 133 18 188 21 213 250 17 248 50 60 17 144 104 160 174 104 255 254 74 118 31 27 175 226 254 220 12 210 173 180 177 192 20 190 127 226 115 222 77 228 57 213 62 54 24 45 242 9 96 121 188 46 58 154 131 206 8 37 207 63 122 109 135 8 223 52 73 115 92 108 244 245 7 4 198 15 169 58 218 77 218 143 19 94 92 250 120 101 72 183 231 2 66 159 134 200 36 193 194 71 219 140 191 4 243 206 44 97 24 93 234 147 45 67 180 146 17 1 249 23 232 104 94 150 209 128 255 89 98 194 93 220 184 24 0 180 249 228 85 105 60 132 245 237 94 187 126 107 227 154 125 153 55 148 85 205 210 155 9 137 109 92 201 107 75 214 149 240 206 227 9 168 233 132 35 48 223 22 90 118 137 247 151 124 234 123 166 53 25 130 174 198 175 110 158 222 200 184 34 171 64 219 171 99 82 230 56 66 248 128 11 71 93 232 85 20 144 236 194 194 33 182 77 148 185 197 76 7 217 83 129 223 206 16 63 117 170 239 23 173 116 134 58 205 10 119 208 149 77 36 203 180 207 215 64 54 12 146 72 25 107 159 126 211 131 2 162 80 9 242 141 108 138 168 195 239 133 202 4 116 216 245 250 194 116 11 198 165 32 28 122 98 195 245 204 148 14 173 10 71 139 216 83 255 8 51 71 95 55 56 230 7 178 40 51 127 17 177 37 188 177 184 240 66 205 68 58 184 33 19 198 26 180 237 87 187 187 79 248 183 117 171 188 104 161 37 239 7 214 72 20 170 73 249 196 98 180 149 40 98 6 249 60 184 18 239 64 85 28 87 167 207 50 57 177 143 107 212 78 225 232 157 94 162 10 37 80 46 174 195 65 123 123 242 35 76 33 86 56 185 57 108 20 85 237 1 172 185 205 193 129 45 96 56 203 204 184 237 157 141 18 120 110 58 206 159 7 133 104 228 238 21 223 72 122 166 233 72 102 4 189 132 94 9 143 5 66 114 4 92 14 216 168 107 15 221 55 53 5 26 227 110 222 47 4 87 95 231 154 212 194 82 218 96 71 59 129 72 55 118 21 16 77 21 63 218 111 176 111 64 200 152 158 234 215 238 115 5 161 91 91 138 96 101 45 45 64 22 189 190 72 251 83 170 128 107 122 70 121 71 141 171 200 103 155 190 196 48 180 87 196 252 94 72 119 70 36 117 85 168 72 20 41 93 114 133 175 223 230 114 179 4 33 253 202 16 244 71 172 215 56 186 131 87 224 3 232 221 199 226 50 28 233 139 202 91 186 172 122 72 77 157 113 209 140 229 154 204 60 166 0 29 194 32 156 158 153 36 150 218 55 215 6 103 169 234 188 137 147 7 0 138 67 253 75 40 156 250 16 70 36 209 26 32 19 74 222 3 113 32 252 205 99 95 158 44 151 168 214 4 81 216 18 14 254 129 212 75 100 190 70 165 88 219 8 179 210 101 119 84 113 89 3 140 11 72 196 234 200 87 30 93 57 105 161 122 103 197 144 202 89 232 30 214 168 130 146 113 183 215 132 204 243 58 25 210 240 142 223 94 156 81 237 202 209 5 107 166 104 87 43 66 172 227 251 20 100 248 125 11 246 89 223 49 24 143 134 29 86 253 207 48 63 168 87 156 103 39 231 219 132 42 239 91 224 146 194 172 3 245 20 217 234 73 43 42 121 36 2 209 186 20 11 216 105 75 208 230 218 242 120 69 165 91 122 12 172 88 21 11 2 255 237 170 252 60 37 215 24 163 141 150 206 42 3 201 101 121 18 117 170 230 217 175 51 40 180 25 12 91 215 3 8 248 241 211 208 214 50 172 146 174 133 250 180 210 185 214 79 106 70 254 59 208 203 120 95 44 4 209 163 6 227 85 72 231 161 131 176 222 41 132 149 59 251 81 117 129 165 221 153 59 103 139 100 2 2 208 188 224 203 19 81 208 18 118 34 11 155 79 51 142 105 253 142 49 73 211 191 114 205 176 204 26 231 48 56 198 87 42 16 81 19 140 16 62 114 155 9 31 99 3 42 44 30 18 157 68 235 2 221 198 39 57 137 183 157 249 17 18 50 252 97 33 141 54 12 42 201 0 158 239 102 183 201 220 216 238 198 19 145 65 242 238 57 230 207 233 224 25 215 125 59 175 79 193 193 25 252 67 81 112 28 26 68 23 17 180 85 9 103 130 122 190 115 75 243 81 121 158 247 92 144 116 71 221 160 239 136 79 194 214 185 12 241 41 84 252 124 18 140 124 229 84 6 140 225 23 206 37 3 10 188 217 36 169 136 199 22 111 192 61 62 209 94 86 166 211 105 52 229 47 3 157 162 15 144 5 197 130 46 76 138 13 126 222 107 207 249 14 129 11 68 26 110 3 207 118 255 142 219 154 181 243 86 215 46 16 128 107 232 30 251 81 19 227 46 35 120 139 13 171 13 205 34 171 198 166 137 198 95 88 203 96 73 10 12 191 187 237 166 199 205 126 133 12 7 18 193 58 31 164 157 39 218 123 14 68 200 32 242 151 103 199 173 162 161 55 157 112 201 13 203 10 110 28 157 138 248 145 216 61 197 126 25 18 204 86 31 12 226 10 158 58 220 83 9 56 71 235 201 31 34 135 141 108 53 126 245 52 165 58 165 196 101 202 241 192 154 18 191 119 136 111 200 75 198 223 132 193 122 21 31 249 5 62 113 17 52 153 193 55 58 114 18 13 221 125 73 59 39 23 226 11 139 86 16 52 214 140 39 250 154 58 208 54 152 59 59 225 163 117 143 48 211 22 40 116 119 2 225 127 15 249 129 95 182 132 127 251 4 194 227 73 207 201 186 116 161 77 132 176 150 21 110 13 62 170 179 30 182 175 75 242 121 54 75 89 168 126 189 70 116 122 91 142 247 172 187 78 113 226 142 154 252 147 67 62 254 193 43 237 93 120 81 27 45 53 158 180 237 210 149 164 151 206 228 55 205 33 57 54 26 38 96 163 214 143 110 23 139 175 217 171 184 231 170 156 228 123 188 183 89 150 181 23 144 195 211 139 85 200 244 138 223 90 21 155 179 202 166 121 216 109 60 130 46 75 228 103 218 48 65 64 163 50 163 221 208 86 253 62 133 254 21 241 234 120 121 59 103 15 23 188 17 207 176 165 1 51 149 59 160 214 219 253 62 93 6 115 0 200 129 63 49 110 120 238 57 10 219 133 9 86 190 217 162 230 88 67 95 25 197 88 49 68 64 236 115 105 31 227 31 43 202 204 52 228 65 188 214 70 34 102 45 43 14 204 117 183 61 186 172 97 162 121 65 231 99 33 190 194 133 73 226 44 218 188 219 98 162 102 69 109 42 151 92 75 197 68 117 30 186 2 8 132 108 13 208 60 232 193 100 180 40 158 92 35 208 21 143 120 242 28 55 101 82 186 208 146 20 131 84 254 32 96 30 137 160 174 253 138 226 68 80 111 142 188 220 92 170 217 189 211 243 208 126 152 88 188 107 22 244 143 136 176 158 88 43 185 107 218 24 226 191 245 47 76 79 170 17 164 78 24 5 19 102 10 60 13 109 119 248 146 204 147 143 170 100 219 73 146 85 235 245 90 136 179 198 80 213 35 107 24 209 63 160 225 215 3 91 198 140 143 159 7 74 139 118 110 11 182 252 252 49 77 125 135 80 240 141 240 91 95 191 42 252 169 12 65 172 251 56 92 15 149 160 160 132 44 146 184 63 69 248 188 76 253 128 60 238 243 141 25 42 24 40 248 19 111 246 40 114 213 155 218 135 101 82 218 85 10 140 230 156 99 45 43 215 55 201 133 242 86 119 109 22 216 42 207 217 120 102 78 108 235 230 222 208 200 87 227 252 4 154 167 223 151 19 40 154 121 111 230 219 202 255 208 63 124 18 250 218 203 36 70 99 40 136 237 107 84 26 65 249 232 11 233 69 137 48 76 226 180 103 208 142 17 117 37 14 254 156 209 238 27 106 206 177 96 178 23 15 138 137 182 45 95 0 255 51 175 233 96 170 197 86 102 12 68 162 86 116 126 209 2 3 156 198 101 144 235 68 207 132 59 14 102 55 18 116 20 30 63 133 16 17 49 166 117 106 81 225 152 102 139 48 30 29 17 76 33 172 121 4 11 184 34 201 55 19 22 125 212 174 92 122 222 0 27 214 174 3 189 119 237 158 168 6 104 162 28 251 192 236 42 13 153 17 203 14 122 248 145 206 89 41 139 251 91 32 122 9 40 241 159 49 236 150 24 26 220 223 209 103 255 132 237 131 195 12 173 25 203 118 162 121 87 19 96 188 149 3 149 225 23 196 232 61 192 204 226 138 127 206 127 168 45 63 16 134 41 9 142 14 55 211 142 239 135 27 112 0 208 149 185 136 202 119 220 66 115 56 31 239 235 24 203 128 255 19 28 97 218 107 36 47 164 173 32 73 85 60 127 227 119 199 51 8 234 166 215 188 109 19 124 190 26 100 248 198 165 237 239 1 181 231 240 90 109 212 92 195 206 36 242 227 85 130 134 219 242 6 76 152 56 206 8 236 116 212 120 19 30 187 17 162 0 28 102 193 78 107 92 129 199 223 128 171 2 210 230 189 236 25 5 12 137 84 55 206 25 212 193 166 204 192 77 197 75 108 71 227 133 70 128 148 78 183 32 30 158 83 236 193 114 36 161 177 128 137 46 61 110 23 88 151 72 34 139 97 133 16 66 201 53 134 214 54 83 94 59 159 194 229 148 158 226 104 90 221 46 4 74 250 235 230 38 58 119 178 231 85 94 111 216 128 13 123 187 83 152 81 27 159 180 146 112 73 226 152 255 65 88 19 231 74 37 159 4 203 222 1 9 28 223 178 120 209 44 190 205 71 216 132 157 97 220 197 35 190 25 139 56 190 125 244 109 224 27 130 140 92 55 173 188 189 75 158 227 61 64 146 13 224 58 66 30 13 122 177 25 25 41 56 5 132 25 87 144 248 196 177 46 249 67 236 203 252 53 167 200 56 244 131 72 165 247 88 177 243 151 3 127 232 240 231 127 104 42 26 224 193 214 122 120 24 225 94 20 211 227 74 169 160 139 66 194 81 73 118 136 22 58 208 122 184 1 171 214 129 243 72 142 247 219 221 174 64 95 23 225 26 228 157 247 122 201 195 25 157 151 219 170 251 224 193 163 238 97 24 150 2 2 87 115 204 115 81 150 244 17 242 133 131 242 45 117 238 22 158 117 59 225 57 225 174 42 134 186 212 130 55 32 83 115 168 92 6 234 202 136 221 38 29 47 200 8 14 216 124 227 171 233 30 110 217 233 16 216 127 162 237 131 189 115 108 116 66 142 100 251 1 195 53 185 231 3 26 198 52 164 122 78 225 31 249 182 5 227 96 245 173 152 136 168 130 37 113 12 212 145 62 230 249 246 113 39 206 117 218 5 9 81 206 5 116 63 2 143 170 4 2 85 222 173 147 25 56 166 135 26 238 55 104 178 198 22 42 164 207 222 134 185 68 170 230 108 51 23 244 152 68 132 143 66 33 121 170 222 96 193 245 158 133 231 85 193 146 108 74 13 241 88 238 13 253 105 247 0 40 134 84 232 254 209 28 114 108 27 109 24 128 92 121 60 176 31 123 155 228 229 116 0 25 210 164 185 5 30 112 251 116 33 237 248 29 251 196 61 145 106 14 131 154 118 230 255 161 68 239 246 40 163 173 43 16 107 179 169 125 74 188 59 110 27 154 209 163 106 115 14 104 116 41 44 224 106 251 95 235 165 78 7 114 205 74 229 217 10 137 207 169 192 55 99 1 113 67 119 56 202 241 29 65 46 208 114 177 110 128 132 251 196 220 12 133 161 25 1 59 53 50 68 10 74 105 64 75 77 31 147 78 60 42 93 143 116 225 66 197 84 157 201 216 224 230 24 28 191 201 223 145 43 196 164 179 131 132 110 124 181 58 103 137 198 187 178 215 63 154 143 173 137 121 132 32 187 102 33 110 192 149 199 215 59 21 172 220 249 23 62 242 107 52 239 99 5 186 103 224 26 100 18 130 86 15 8 73 166 228 74 243 1 49 116 249 92 171 17 191 144 18 213 153 29 70 88 22 28 195 227 30 222 239 71 224 97 76 232 28 196 152 112 109 183 242 243 96 5 240 161 168 32 246 149 136 201 129 165 189 228 61 153 100 169 123 165 27 108 105 125 117 151 206 249 44 60 56 173 196 73 162 158 77 84 86 192 223 101 83 159 192 94 236 65 209 20 113 30 178 85 129 171 67 197 133 220 152 161 24 194 53 42 136 89 103 207 145 93 232 201 70 254 117 96 179 71 250 178 50 219 10 88 114 227 194 34 86 239 242 126 74 155 108 52 98 17 133 133 201 87 116 215 7 218 11 136 165 133 97 191 42 53 100 142 242 105 252 248 146 116 93 4 76 191 92 84 28 10 36 99 29 235 118 227 165 82 172 107 75 52 26 31 34 246 13 172 236 214 135 142 164 229 36 74 213 230 249 243 65 241 2 42 42 67 229 90 19 126 229 7 48 32 192 149 211 210 220 8 23 224 131 242 185 255 67 221 120 78 77 75 172 113 187 145 188 95 218 173 237 148 79 112 171 29 160 56 183 35 228 210 213 91 216 0 155 15 38 150 145 78 197 0 123 18 151 164 205 57 236 118 117 90 113 196 233 189 39 49 28 232 108 155 74 127 181 173 216 128 183 164 113 45 187 251 66 88 168 103 195 39 210 227 220 211 230 88 56 65 147 174 120 254 35 18 182 107 79 137 34 165 161 222 198 53 75 126 123 26 27 180 225 131 59 92 192 36 201 41 144 207 222 26 247 160 153 4 18 233 218 142 243 196 212 85 69 6 89 127 58 35 206 91 9 137 245 110 239 201 85 144 95 230 238 156 81 30 244 156 231 116 208 37 110 103 81 35 149 43 232 63 30 11 44 133 179 132 66 240 105 251 206 43 144 19 4 200 218 222 229 232 106 125 103 111 129 226 41 121 122 238 163 36 135 84 60 81 40 42 125 111 162 96 167 22 217 227 103 153 215 152 225 145 216 236 85 203 72 39 202 245 63 110 170 207 2 200 253 181 253 70 245 208 7 244 232 82 69 26 87 173 13 207 149 226 11 228 203 164 176 201 128 46 95 241 166 118 1 20 